<svg width="24" height="24" viewBox="0 0 24 24" fill="none" xmlns="http://www.w3.org/2000/svg">
    <path fill-rule="evenodd" clip-rule="evenodd" d="M18.6748 3.01223C20.0748 2.86923 21.2298 4.00223 20.9778 5.27223L20.6438 6.94923C19.8078 11.1582 19.8998 15.4782 20.9128 19.6542C21.2048 20.8572 20.2048 21.9992 18.8588 21.9992H5.16483C3.81883 21.9992 2.81883 20.8582 3.11083 19.6542C4.12183 15.4872 4.12183 11.1672 3.11083 6.99923L3.05083 6.75023C2.77883 5.63023 3.62883 4.54323 4.87283 4.41623L18.6748 3.01223ZM16.5118 8.99923C16.5118 8.44723 16.0638 7.99923 15.5118 7.99923C14.9598 7.99923 14.5118 8.44723 14.5118 8.99923C14.5118 9.55123 14.9598 9.99923 15.5118 9.99923C16.0638 9.99923 16.5118 9.55123 16.5118 8.99923ZM8.51183 7.99923C9.06383 7.99923 9.51183 8.44723 9.51183 8.99923C9.51183 9.55123 9.06383 9.99923 8.51183 9.99923C7.95983 9.99923 7.51183 9.55123 7.51183 8.99923C7.51183 8.44723 7.95983 7.99923 8.51183 7.99923ZM7.26183 11.9992C7.26183 14.6182 9.39283 16.7492 12.0118 16.7492C14.6308 16.7492 16.7618 14.6192 16.7618 11.9992C16.7618 11.5852 16.4258 11.2492 16.0118 11.2492C15.5978 11.2492 15.2618 11.5852 15.2618 11.9992C15.2618 13.7912 13.8038 15.2492 12.0118 15.2492C10.2198 15.2492 8.76183 13.7912 8.76183 11.9992C8.76183 11.5852 8.42583 11.2492 8.01183 11.2492C7.59783 11.2492 7.26183 11.5852 7.26183 11.9992Z" fill="white"/>
</svg>
