<svg width="18" height="18" viewBox="0 0 18 18" fill="none" xmlns="http://www.w3.org/2000/svg">
    <path d="M16.3819 10.4497C16.3819 10.4497 16.3826 10.4497 16.3826 10.4505C16.3796 9.69825 16.3466 8.946 16.2784 8.199C15.9311 4.38 12.7774 1.5 8.94263 1.5C5.10788 1.5 1.95487 4.38 1.60688 8.199C1.46438 9.76425 1.46438 11.3512 1.60688 12.9165C1.64212 13.3057 1.96913 13.5983 2.35313 13.5983C2.37563 13.5983 2.39888 13.5975 2.42213 13.5953C2.62613 13.5765 2.80313 13.4768 2.92537 13.332C3.17288 13.434 3.43612 13.5 3.71587 13.5C4.86637 13.5 5.82713 12.558 5.93062 11.3272C5.97712 10.7767 5.97712 10.2233 5.93062 9.67275C5.82638 8.442 4.86562 7.5 3.71587 7.5C3.54787 7.5 3.38588 7.524 3.22838 7.56225C3.82388 4.91475 6.15413 3 8.94263 3C11.7274 3 14.0554 4.91025 14.6546 7.5525C14.5121 7.52175 14.3666 7.5 14.2159 7.5C13.0654 7.5 12.1046 8.442 12.0011 9.67275C11.9546 10.2233 11.9546 10.7767 12.0011 11.3272C12.1039 12.5445 13.0459 13.4768 14.1799 13.4963C13.5364 14.3438 12.4459 15.015 11.1304 15.3743C10.9481 14.7847 10.3436 14.3318 9.58537 14.2748L9.56287 14.2733C9.15037 14.2425 8.73488 14.2425 8.32238 14.2733L8.29987 14.2748C7.39012 14.343 6.69263 14.979 6.69263 15.7402C6.69263 16.512 7.39913 17.157 8.32238 17.2267C8.73488 17.2575 9.15037 17.2575 9.56287 17.2267C9.78037 17.2102 9.98513 17.16 10.1726 17.085C13.4201 16.689 15.9551 14.7525 16.2754 12.2677C16.3534 11.664 16.3864 11.0565 16.3819 10.4497Z" fill="white"/>
</svg>
