<svg width="24" height="24" viewBox="0 0 24 24" fill="none" xmlns="http://www.w3.org/2000/svg">    <path fill-rule="evenodd" clip-rule="evenodd" d="M16.4985 6.5C16.4985 8.985 14.4835 11 11.9985 11C9.51346 11 7.49846 8.985 7.49846 6.5C7.49846 4.015 9.51346 2 11.9985 2C14.4835 2 16.4985 4.015 16.4985 6.5ZM19.9835 18.589C19.7645 16.431 19.1625 14.365 18.2345 12.49C17.5105 11.027 15.8555 10.573 14.5045 11.337C13.7545 11.761 12.9025 12.001 11.9995 12.001C11.0965 12.001 10.2445 11.761 9.49446 11.337C8.14346 10.573 6.48846 11.027 5.76446 12.49C4.83646 14.365 4.23446 16.432 4.01546 18.589C3.87746 19.948 4.67646 21.219 5.89646 21.517C9.91646 22.501 14.0845 22.501 18.1045 21.517C19.3225 21.218 20.1215 19.948 19.9835 18.589ZM10.9984 15C10.9984 15.552 11.4464 16 11.9984 16C12.5514 16 12.9984 15.552 12.9984 15C12.9984 14.448 12.5504 14 11.9984 14C11.4464 14 10.9984 14.448 10.9984 15ZM10.9984 18C10.9984 18.552 11.4464 19 11.9984 19C12.5514 19 12.9984 18.552 12.9984 18C12.9984 17.448 12.5504 17 11.9984 17C11.4464 17 10.9984 17.448 10.9984 18Z" fill="white"/></svg>